<?xml version="1.0" encoding="UTF-8"?>
<!DOCTYPE svg PUBLIC "-//W3C//DTD SVG 1.1//EN" "http://www.w3.org/Graphics/SVG/1.1/DTD/svg11.dtd">
<!-- Creator: CorelDRAW -->
<svg xmlns="http://www.w3.org/2000/svg" xml:space="preserve" width="39.9691mm" height="20.0521mm" version="1.1" style="shape-rendering:geometricPrecision; text-rendering:geometricPrecision; image-rendering:optimizeQuality; fill-rule:evenodd; clip-rule:evenodd"
viewBox="0 0 1424.62 714.72"
 xmlns:xlink="http://www.w3.org/1999/xlink"
 xmlns:xodm="http://www.corel.com/coreldraw/odm/2003">
 <defs>
  <style type="text/css">
   <![CDATA[
    .fil0 {fill:#FEFEFE}
    .fil1 {fill:#FEFEFE;fill-rule:nonzero}
   ]]>
  </style>
 </defs>
 <g id="Слой_x0020_1">
  <metadata id="CorelCorpID_0Corel-Layer"/>
  <g id="_2654981315552">
   <path class="fil0" d="M886.04 465.23c-29.28,-6.99 -49.17,-6.09 -79.13,-5.31 0.41,-0.44 0.92,-0.95 1.27,-1.28 0.34,-0.32 0.82,-0.85 1.23,-1.22 0.39,-0.35 0.77,-0.75 1.19,-1.1l16.64 -8.84c6.84,-2.76 14.13,-5.37 21.81,-8.63 13.91,-5.89 28.45,-10.81 41.62,-17.27 92.43,-45.41 59.02,-127.12 118.16,-178.71 5.47,-4.78 11.06,-9.26 17.34,-13.05 6.13,-3.7 13.24,-7.17 17.67,-10.6 -6.49,-2.31 -37.67,12.25 -44.2,16.13 -46.24,27.54 -45.65,73.87 -72.54,117 -19.63,31.48 -36.87,41.96 -66.22,60.74 -18.95,12.13 -41.23,22.26 -58.45,38.14 -5.51,5.08 -8.81,10.65 -17.05,13.51l-47.27 16.87c-30.16,9 -54.05,-27.92 -78.02,-44.69 -44.29,-31.01 -105.47,-25.1 -123.93,30.26 -5.89,17.65 -5.04,38.92 -0.52,56.78 2.04,8.04 5.7,17.43 8.44,23.47 3.85,8.49 8.46,14.2 9.89,22.22 -13.07,7.75 -72.49,13.15 -81.87,-5.33 -6.09,-12.01 15.57,-24.9 24.95,-34.21 -8.01,1.58 -21.38,10.03 -28.01,15.06 -9.09,6.9 -16.65,12.9 -15.05,26.19 7.01,21.74 71.59,18.74 85.96,17.85 24.19,-1.5 30.95,-3.25 54.62,-9.74l165.65 -42.34c-70.28,-3.62 -175.82,31.91 -203.14,32.76 -31.54,-82.29 20.15,-171.76 98.55,-99.73 67.47,62 68.09,33.69 129.76,12.33 59.13,-20.48 116.39,0.14 168.14,27.68 79.54,46.41 117.27,87.63 210.62,48.92 39.37,-16.32 77.21,-37.29 123.55,-42.73 84.76,-9.94 124.42,26.31 136.9,28.63 -19.25,-24.95 -63.31,-49.56 -99.59,-53.51 -114.3,-12.45 -194.82,63.35 -249.73,48.95 -29.88,-7.83 -53.61,-21.59 -80.22,-34.32 -7.13,-3.41 -18.63,-8.22 -24.16,-11.93 -8.4,-2.38 -1.1,-0.37 -8.97,-3.7 -26.44,-9.81 -48.67,-18.73 -75.91,-25.22z"/>
   <path class="fil0" d="M1039.38 177.13c-5.03,3.11 -4.38,3.55 -8.59,9.09 -53.51,70.51 -157.86,-87.1 -100.99,-149.35 28.75,-31.47 69.21,-30.8 91.43,-2.01 10.04,13.01 15.23,29.9 19.61,48.56 26.93,114.73 12.69,92.07 75.35,126.4 16.92,9.27 27.84,16.83 35.95,31.99 29.71,55.5 -8.92,110.42 41.94,211.8 2.79,5.56 3.6,7.59 8.85,11.9 -2.36,-19.04 -7.8,-29.69 -11.23,-64.19 -10.76,-108.07 20.3,-177.89 -74.23,-219.68 -20.94,-9.25 -33.4,-9.74 -41.89,-31.32 -13.65,-34.7 -15.96,-81.76 -33.97,-112.56 -45.84,-78.38 -161.15,-25.23 -147.3,72.33 4.94,34.8 29.81,70.73 55.73,90.67 13.32,10.24 34.92,22.07 54.44,18.62 20.46,-3.62 32.25,-22.75 34.89,-42.25z"/>
   <path class="fil0" d="M991.09 421.56c-3.41,6.43 -10.39,11 -15.9,16.53 -5.11,5.14 -10.27,12.34 -17.45,15.03 0.89,7.9 -0.49,0.68 3.34,4.79 2.27,-2.82 -1.84,-0.55 5.58,-3.31 1.96,-0.73 4.3,-1.09 6.91,-1.98 4.94,-1.7 9.11,-4.5 13.25,-6.73 18.72,-9.61 41.5,-33.56 51.94,-51.61 8.55,-14.77 28.26,-54.91 28.68,-76.53 -13.14,16.68 -28.51,47.93 -54.84,79.01l-15.39 18.52c-1.58,1.76 -3.79,4.43 -6.13,6.27z"/>
   <circle class="fil0" cx="871.53" cy="498.81" r="7.24"/>
   <circle class="fil0" cx="894.66" cy="510.86" r="7.24"/>
   <circle class="fil0" cx="923.81" cy="525.63" r="9.58"/>
   <circle class="fil0" cx="956.17" cy="548.66" r="12.01"/>
   <circle class="fil0" cx="1000.2" cy="574.41" r="13.07"/>
   <circle class="fil0" cx="1138.49" cy="598.16" r="10.81"/>
   <circle class="fil0" cx="1177.4" cy="587.73" r="9.93"/>
   <circle class="fil0" cx="1210.15" cy="575" r="7.43"/>
   <circle class="fil0" cx="1236.98" cy="565.45" r="7.43"/>
   <circle class="fil0" cx="1266.54" cy="562.49" r="6.52"/>
   <path class="fil1" d="M1321.85 663.01l0 26.24 67.77 0c1.96,0 3.49,-0.42 4.54,-1.31 1.04,-0.88 1.89,-2.45 2.51,-4.77l2.74 0 0 31.53 -2.74 0c-0.59,-2.22 -1.4,-3.79 -2.48,-4.7 -1.08,-0.91 -2.61,-1.37 -4.57,-1.37l-99.49 0 0 -2.74c2.22,-0.59 3.79,-1.4 4.7,-2.48 0.91,-1.08 1.37,-2.61 1.37,-4.6l0 -87.48c0,-1.99 -0.46,-3.49 -1.34,-4.5 -0.88,-1.01 -2.45,-1.9 -4.73,-2.58l0 -2.74 96.65 0c2.02,0 3.56,-0.46 4.6,-1.34 1.08,-0.88 1.93,-2.45 2.55,-4.73l2.54 0 0 31.53 -2.54 0c-0.62,-2.32 -1.47,-3.89 -2.52,-4.77 -1.08,-0.88 -2.61,-1.3 -4.63,-1.3l-64.93 0 0 23.5 40.25 0c1.96,0 3.49,-0.46 4.54,-1.34 1.04,-0.88 1.93,-2.45 2.61,-4.73l2.54 0 0 30.75 -2.54 0c-0.62,-2.25 -1.47,-3.82 -2.51,-4.73 -1.08,-0.88 -2.61,-1.34 -4.64,-1.34l-40.25 0zm-73.93 4.31l-24.35 0c-2.05,0 -3.59,0.46 -4.63,1.34 -1.08,0.88 -1.89,2.45 -2.54,4.73l-2.55 0 0 -28.4 2.55 0c0.65,2.25 1.47,3.82 2.54,4.73 1.04,0.88 2.58,1.34 4.63,1.34l50.99 0 0 2.74c-2.22,0.65 -3.79,1.57 -4.7,2.78 -0.92,1.2 -1.37,2.94 -1.37,5.19l0 22.65c0,1.96 0.46,3.49 1.37,4.61 0.91,1.08 2.48,1.92 4.7,2.58l0 2.16c-20.66,11.49 -41.22,17.23 -61.76,17.23 -17.73,0 -32.05,-4.18 -43.02,-12.54 -5.94,-4.6 -10.71,-10.28 -14.36,-17.04 -4.27,-8.06 -6.4,-16.65 -6.4,-25.76 0,-12.66 3.89,-23.9 11.66,-33.72 12.11,-15.18 30,-22.79 53.7,-22.79 10.38,0 22.23,2.32 35.55,6.99 5.29,1.8 8.39,2.71 9.27,2.71 1.08,0 2.35,-0.52 3.82,-1.56l2.35 1.27 -12.63 26.96 -2.28 -1.14c0,-0.26 0,-0.46 0,-0.59 0,-2.35 -2.38,-4.77 -7.09,-7.28 -8.75,-4.67 -18.15,-6.99 -28.17,-6.99 -11.56,0 -21.02,3.17 -28.43,9.47 -7.8,6.63 -11.68,15.54 -11.68,26.77 0,10.51 3.53,18.9 10.61,25.2 7.28,6.43 17.47,9.66 30.59,9.66 12.5,0 23.05,-2.32 31.66,-6.98l0 -16.32zm-159.06 -0.59l-17.53 -34.41 -16.68 34.41 34.21 0zm7.77 15.08l-49.32 0 -5.58 11.65c-1.37,2.81 -2.02,5.03 -2.02,6.59 0,3.07 2.06,5.03 6.14,5.84l0 2.74 -39.37 0 0 -2.74c2.42,-0.39 4.21,-1.11 5.39,-2.18 1.21,-1.11 2.58,-3.23 4.18,-6.4l39.11 -79.12c1.47,-2.97 2.18,-5.58 2.18,-7.83 0,-2.61 -1.76,-4.64 -5.35,-6.11l0 -2.74 41.62 0 0 2.74c-3.49,1.4 -5.25,3.56 -5.25,6.5 0,2.09 0.78,4.67 2.38,7.73l40.58 76.71c2.22,4.18 3.98,6.89 5.25,8.09 1.27,1.24 3.23,2.09 5.84,2.61l0 2.74 -43.67 0 0 -2.74c4.18,-0.68 6.27,-2.64 6.27,-5.81 0,-1.96 -0.82,-4.41 -2.38,-7.34l-5.97 -10.94zm-98.71 -70.64l-12.93 24.97 -2.28 -1.24c0,-2.09 -0.68,-3.76 -2.02,-4.96 -3.62,-3.26 -9.01,-5.94 -16.09,-8.03 -7.08,-2.12 -14.26,-3.17 -21.54,-3.17 -6.17,0 -11.69,0.85 -16.45,2.58 -6.89,2.48 -10.35,6.1 -10.35,10.84 0,3.1 1.66,5.32 4.96,6.63 3.33,1.31 9.73,2.35 19.26,3.13l15.11 1.14c13.19,1.01 23.24,3.56 30.13,7.64 3.82,2.32 6.99,5.39 9.47,9.21 3.13,4.77 4.7,10.15 4.7,16.16 0,10.9 -4.89,19.52 -14.72,25.85 -9.4,6.04 -22.07,9.07 -38.09,9.07 -16.13,0 -31.73,-3.39 -46.78,-10.22 -1.01,-0.46 -1.89,-0.69 -2.58,-0.69 -1.28,0 -2.45,0.78 -3.56,2.32l-2.38 -0.98 11 -26.18 2.38 0.95c0,0.39 0,0.65 0,0.78 0,1.66 0.65,3.04 1.92,4.21 3.2,2.81 8.71,5.22 16.55,7.31 7.83,2.06 15.6,3.1 23.24,3.1 6.75,0 12.83,-0.88 18.18,-2.68 6.63,-2.18 9.96,-5.68 9.96,-10.54 0,-3.92 -2.28,-6.63 -6.89,-8.16 -3.07,-1.01 -8.58,-1.9 -16.58,-2.58l-15.02 -1.24c-8.09,-0.65 -14.3,-1.47 -18.57,-2.51 -4.27,-1.01 -7.99,-2.51 -11.2,-4.47 -4.08,-2.58 -7.28,-6.04 -9.56,-10.44 -2.32,-4.41 -3.46,-9.24 -3.46,-14.46 0,-11.75 5.06,-20.73 15.15,-26.93 9.17,-5.61 20.53,-8.42 34.08,-8.42 7.34,0 14.2,0.82 20.53,2.45 6.37,1.63 13.94,4.51 22.75,8.59 2.61,1.21 4.44,1.83 5.45,1.83 1.04,0 2.35,-0.69 3.95,-2.12l2.28 1.28zm-120.58 0l-12.93 24.97 -2.28 -1.24c0,-2.09 -0.68,-3.76 -2.02,-4.96 -3.62,-3.26 -9.01,-5.94 -16.09,-8.03 -7.09,-2.12 -14.27,-3.17 -21.55,-3.17 -6.17,0 -11.68,0.85 -16.45,2.58 -6.89,2.48 -10.35,6.1 -10.35,10.84 0,3.1 1.66,5.32 4.96,6.63 3.33,1.31 9.73,2.35 19.26,3.13l15.11 1.14c13.19,1.01 23.24,3.56 30.13,7.64 3.82,2.32 6.99,5.39 9.47,9.21 3.13,4.77 4.7,10.15 4.7,16.16 0,10.9 -4.89,19.52 -14.72,25.85 -9.4,6.04 -22.07,9.07 -38.09,9.07 -16.12,0 -31.73,-3.39 -46.78,-10.22 -1.01,-0.46 -1.89,-0.69 -2.58,-0.69 -1.28,0 -2.45,0.78 -3.56,2.32l-2.38 -0.98 11 -26.18 2.38 0.95c0,0.39 0,0.65 0,0.78 0,1.66 0.65,3.04 1.92,4.21 3.2,2.81 8.71,5.22 16.55,7.31 7.83,2.06 15.6,3.1 23.24,3.1 6.75,0 12.83,-0.88 18.18,-2.68 6.63,-2.18 9.96,-5.68 9.96,-10.54 0,-3.92 -2.28,-6.63 -6.89,-8.16 -3.07,-1.01 -8.59,-1.9 -16.58,-2.58l-15.01 -1.24c-8.1,-0.65 -14.3,-1.47 -18.57,-2.51 -4.28,-1.01 -8,-2.51 -11.2,-4.47 -4.08,-2.58 -7.28,-6.04 -9.56,-10.44 -2.32,-4.41 -3.46,-9.24 -3.46,-14.46 0,-11.75 5.06,-20.73 15.15,-26.93 9.17,-5.61 20.53,-8.42 34.08,-8.42 7.34,0 14.2,0.82 20.53,2.45 6.37,1.63 13.94,4.51 22.75,8.59 2.61,1.21 4.44,1.83 5.45,1.83 1.04,0 2.35,-0.69 3.95,-2.12l2.28 1.28zm-165.53 55.56l-17.53 -34.41 -16.68 34.41 34.21 0zm7.77 15.08l-49.32 0 -5.58 11.65c-1.37,2.81 -2.02,5.03 -2.02,6.59 0,3.07 2.06,5.03 6.14,5.84l0 2.74 -39.37 0 0 -2.74c2.42,-0.39 4.21,-1.11 5.39,-2.18 1.21,-1.11 2.58,-3.23 4.18,-6.4l39.1 -79.12c1.47,-2.97 2.19,-5.58 2.19,-7.83 0,-2.61 -1.76,-4.64 -5.35,-6.11l0 -2.74 41.62 0 0 2.74c-3.49,1.4 -5.25,3.56 -5.25,6.5 0,2.09 0.78,4.67 2.38,7.73l40.58 76.71c2.22,4.18 3.98,6.89 5.25,8.09 1.27,1.24 3.23,2.09 5.85,2.61l0 2.74 -43.68 0 0 -2.74c4.18,-0.68 6.27,-2.64 6.27,-5.81 0,-1.96 -0.82,-4.41 -2.38,-7.34l-5.97 -10.94zm-173.07 26.83l-39.07 -70.31 0 60.42c0,1.96 0.46,3.49 1.34,4.54 0.88,1.04 2.45,1.92 4.73,2.61l0 2.74 -35.45 0 0 -2.74c2.22,-0.59 3.79,-1.4 4.7,-2.48 0.91,-1.08 1.37,-2.61 1.37,-4.6l0 -87.48c0,-1.99 -0.46,-3.49 -1.34,-4.54 -0.88,-1.08 -2.45,-1.92 -4.73,-2.54l0 -2.74 45.15 0 0 2.74c-2.97,0.95 -4.47,2.78 -4.47,5.45 0,2.61 1.08,5.78 3.23,9.53l26.67 48.44 26.86 -47.75c3.07,-5.03 4.6,-8.59 4.6,-10.71 0,-2.61 -1.56,-4.28 -4.7,-4.96l0 -2.74 44.07 0 0 2.74c-2.28,0.62 -3.85,1.47 -4.73,2.51 -0.88,1.08 -1.34,2.58 -1.34,4.54l0 87.45c0,1.96 0.46,3.49 1.34,4.57 0.88,1.08 2.45,1.92 4.73,2.58l0 2.74 -37.8 0 0 -2.74c2.22,-0.59 3.79,-1.4 4.7,-2.48 0.91,-1.08 1.37,-2.61 1.37,-4.57l0 -60.52 -41.22 70.31z"/>
   <path class="fil1" d="M438.15 464.18l0 219.77c0,4.92 1.15,8.7 3.36,11.4 2.21,2.63 6.15,4.84 11.89,6.57l0 6.89 -95 0 0 -6.89c5.58,-1.48 9.52,-3.53 11.81,-6.24 2.3,-2.71 3.45,-6.56 3.45,-11.57l0 -219.85c0,-5 -1.15,-8.78 -3.36,-11.32 -2.21,-2.54 -6.15,-4.76 -11.89,-6.48l0 -6.89 95 0 0 6.89c-5.74,1.56 -9.68,3.69 -11.89,6.32 -2.21,2.71 -3.36,6.48 -3.36,11.4zm-123.05 -56.11l-39.13 77.2 -6.73 -3.86c0.16,-1.56 0.25,-2.87 0.25,-3.86 0,-5.41 -4.68,-11.32 -13.95,-17.55 -28.55,-19.85 -62.02,-29.78 -100.49,-29.78 -16.98,0 -31.99,2.05 -45.04,6.23 -9.43,3.28 -17.06,8.04 -22.97,14.52 -5.82,6.4 -8.78,13.37 -8.78,20.92 0,12.39 7.47,20.84 22.31,25.27 7.71,2.3 24.2,4.68 49.55,7.3l37.74 3.85c22.39,2.38 40.61,5.66 54.47,9.84 13.86,4.18 26.09,10.01 36.83,17.56 10.91,7.87 19.52,18.21 25.84,31.01 6.32,12.88 9.52,26.58 9.52,41.18 0,23.05 -7.47,43.64 -22.32,61.61 -13.45,16.32 -34.37,28.47 -62.76,36.26 -21.16,5.99 -43.81,8.94 -68.01,8.94 -43.4,0 -86.22,-10.42 -128.55,-31.17 -8.94,-4.18 -14.27,-6.23 -16.08,-6.23 -2.05,0 -5.33,1.8 -9.84,5.25l-6.97 -3.53 35.6 -80.47 6.97 3.36c0,1.4 0,2.46 0,3.12 0,7.22 3.45,13.87 10.25,19.94 10.42,9.27 26.58,17.31 48.32,24.03 21.82,6.73 42.5,10.09 62.02,10.09 21.33,0 39.54,-3.61 54.56,-10.83 8.37,-4.02 15.01,-9.35 19.94,-16 5,-6.64 7.46,-13.62 7.46,-20.84 0,-10.91 -5.82,-18.71 -17.55,-23.38 -8.21,-3.2 -24.69,-6.16 -49.55,-8.86l-37.08 -3.86c-24.78,-2.62 -42.41,-5.09 -52.67,-7.38 -10.25,-2.3 -20.51,-6.07 -30.76,-11.24 -14.6,-7.22 -26.09,-18.05 -34.37,-32.49 -7.55,-13.04 -11.32,-27.97 -11.32,-44.79 0,-27.81 9.52,-50.78 28.63,-68.91 25.02,-23.96 62.59,-35.94 112.71,-35.94 20.92,0 40.53,2.14 58.58,6.4 18.13,4.27 40.69,12.06 67.84,23.46 9.27,3.69 14.93,5.5 17.06,5.5 3.36,0 7.22,-1.8 11.73,-5.5l6.73 3.61z"/>
  </g>
 </g>
</svg>
